<?xml version="1.0" encoding="UTF-8" standalone="no"?>
<svg
   xmlns:dc="http://purl.org/dc/elements/1.1/"
   xmlns:cc="http://creativecommons.org/ns#"
   xmlns:rdf="http://www.w3.org/1999/02/22-rdf-syntax-ns#"
   xmlns:svg="http://www.w3.org/2000/svg"
   xmlns="http://www.w3.org/2000/svg"
   xmlns:sodipodi="http://sodipodi.sourceforge.net/DTD/sodipodi-0.dtd"
   xmlns:inkscape="http://www.inkscape.org/namespaces/inkscape"
   viewBox="0.0 0.0 348.0 348.0"
   fill="none"
   version="1.1"
   id="svg849"
   sodipodi:docname="Space Traders.svg"
   inkscape:version="1.0.1 (3bc2e813f5, 2020-09-07)">
  <metadata
     id="metadata855">
    <rdf:RDF>
      <cc:Work
         rdf:about="">
        <dc:format>image/svg+xml</dc:format>
        <dc:type
           rdf:resource="http://purl.org/dc/dcmitype/StillImage" />
        <dc:title />
      </cc:Work>
    </rdf:RDF>
  </metadata>
  <defs
     id="defs853" />
  <sodipodi:namedview
     pagecolor="#ffffff"
     bordercolor="#666666"
     borderopacity="1"
     objecttolerance="10"
     gridtolerance="10"
     guidetolerance="10"
     inkscape:pageopacity="0"
     inkscape:pageshadow="2"
     inkscape:window-width="1858"
     inkscape:window-height="1057"
     id="namedview851"
     showgrid="false"
     inkscape:snap-bbox="true"
     inkscape:bbox-paths="true"
     inkscape:bbox-nodes="true"
     inkscape:snap-bbox-edge-midpoints="true"
     inkscape:snap-bbox-midpoints="true"
     inkscape:object-paths="true"
     inkscape:snap-intersection-paths="true"
     inkscape:snap-smooth-nodes="true"
     inkscape:snap-midpoints="true"
     inkscape:snap-object-midpoints="true"
     inkscape:snap-center="true"
     inkscape:snap-text-baseline="true"
     inkscape:snap-page="true"
     inkscape:zoom="1.2394688"
     inkscape:cx="42.217952"
     inkscape:cy="229.29628"
     inkscape:window-x="54"
     inkscape:window-y="-8"
     inkscape:window-maximized="1"
     inkscape:current-layer="svg849"
     inkscape:document-rotation="0" />
  <path
     style="fill:none;stroke:#000000;stroke-width:2;stroke-linecap:butt;stroke-linejoin:miter;stroke-opacity:1;stroke-miterlimit:4;stroke-dasharray:none"
     d="M 253.13263,54.660511 252.93092,99.437759 181.12599,79.066132 143.00481,61.518288 91.369789,78.864426"
     id="path1015" />
  <path
     style="fill:none;stroke:#000000;stroke-width:2;stroke-linecap:butt;stroke-linejoin:miter;stroke-opacity:1;stroke-miterlimit:4;stroke-dasharray:none"
     d="m 295.89288,190.40414 -7.26117,-56.87921 -38.12117,23.39713 -57.686,-24.20392 -56.27411,-34.288872"
     id="path1017" />
  <path
     style="fill:none;stroke:#000000;stroke-width:2;stroke-linecap:butt;stroke-linejoin:miter;stroke-opacity:1;stroke-miterlimit:4;stroke-dasharray:none"
     d="m 247.68675,300.53198 -72.41005,-36.5076 -42.35685,22.79203"
     id="path1021" />
  <path
     style="fill:none;stroke:#000000;stroke-width:2;stroke-linecap:butt;stroke-linejoin:miter;stroke-opacity:1;stroke-miterlimit:4;stroke-dasharray:none"
     d="m 159.74585,186.97527 -43.97044,-15.93425 -49.618038,4.43737"
     id="path1023" />
  <path
     style="fill:none;stroke:#000000;stroke-width:2;stroke-linecap:butt;stroke-linejoin:miter;stroke-opacity:1;stroke-miterlimit:4;stroke-dasharray:none"
     d="m 252.93092,99.437759 -60.10638,33.280381 -33.07869,54.25713 -32.47359,39.33136 48.00444,37.71775 36.50757,-54.6605 49.61804,28.23791 40.74326,61.71999"
     id="path1019" />
  <path
     d="M5.079 5.776h336.913v337.67H5.08z"
     stroke-width="2"
     stroke="#000"
     id="path845" />
  <path
     d="M282.734 40.554c0-8.376 6.966-15.165 15.56-15.165 4.126 0 8.084 1.597 11.001 4.441 2.918 2.844 4.558 6.702 4.558 10.724 0 8.376-6.966 15.165-15.56 15.165-8.593 0-15.559-6.79-15.559-15.165z"
     stroke-width="2"
     stroke="#000"
     id="path847" />
  <g
     aria-label="5 GCr"
     id="text853"
     style="font-style:normal;font-variant:normal;font-weight:normal;font-stretch:normal;font-size:32px;line-height:1.25;font-family:'Wheaton RS';-inkscape-font-specification:'Wheaton RS, Normal';font-variant-ligatures:normal;font-variant-caps:normal;font-variant-numeric:normal;font-variant-east-asian:normal;fill:#000000;fill-opacity:1;stroke:none;stroke-width:2;stroke-miterlimit:4;stroke-dasharray:none;stroke-opacity:1">
    <path
       d="m 39.786263,278.34503 h -10.40625 q -0.40625,0 -0.625,-0.21875 -0.21875,-0.25 -0.21875,-0.71875 v -3.03125 q 0,-0.40625 0.21875,-0.625 0.21875,-0.1875 0.625,-0.1875 h 8.59375 q 0.84375,0 1.25,-0.40625 0.40625,-0.40625 0.40625,-1.3125 v -2.34375 q 0.03125,-0.90625 -0.40625,-1.25 -0.40625,-0.375 -1.53125,-0.375 h -7.5625 q -0.90625,0 -1.25,-0.4375 -0.3125,-0.40625 -0.3125,-1.125 l 0.34375,-10.1875 q 0.03125,-0.8125 0.46875,-1.25 0.40625,-0.4375 1.125,-0.4375 h 13.6875 q 0.4375,0 0.625,0.21875 0.1875,0.21875 0.1875,0.65625 v 2.625 q 0,0.40625 -0.1875,0.59375 -0.1875,0.21875 -0.625,0.21875 h -9.0625 q -0.4375,0 -0.625,0.28125 -0.15625,0.3125 -0.1875,0.78125 l -0.1875,3.375 q 0,0.25 0.09375,0.375 0.09375,0.0937 0.40625,0.0937 h 3.96875 q 2.625,0 4.09375,0.5625 1.4375,0.53125 2,1.875 0.5625,1.3125 0.5625,3.59375 v 2.4375 q 0,2.15625 -0.4375,3.53125 -0.4375,1.375 -1.625,2.03125 -1.1875,0.65625 -3.40625,0.65625 z"
       id="path1043" />
    <path
       d="m 65.130013,260.78253 v 11.3125 q 0,1.28125 0.3125,1.6875 0.34375,0.40625 1.15625,0.375 h 3.5 q 0.375,0 0.53125,-0.15625 0.1875,-0.1875 0.1875,-0.53125 v -3.1875 q -0.03125,-0.6875 -0.34375,-0.96875 -0.3125,-0.25 -0.625,-0.46875 -0.28125,-0.21875 -0.3125,-0.75 v -1.625 q 0,-0.4375 0.28125,-0.71875 0.28125,-0.25 0.84375,-0.25 h 4.59375 q 0.65625,0 0.9375,0.28125 0.3125,0.3125 0.3125,0.90625 v 7.875 q 0.03125,1.46875 -0.28125,2.28125 -0.3125,0.84375 -1.125,1.1875 -0.84375,0.34375 -2.40625,0.3125 h -6.4375 q -2.375,0.0312 -3.84375,-0.28125 -1.5,-0.3125 -2.25,-1.03125 -0.78125,-0.75 -1.0625,-2.03125 -0.28125,-1.3125 -0.25,-3.3125 v -10.59375 q -0.03125,-2 0.25,-3.28125 0.28125,-1.3125 1.0625,-2.03125 0.75,-0.75 2.25,-1.0625 1.46875,-0.28125 3.84375,-0.28125 h 3.9375 q 2.0625,0 3.375,0.375 1.3125,0.375 1.9375,1.40625 0.65625,1 0.65625,2.9375 v 1.15625 q 0,0.875 -0.875,0.875 h -3.78125 q -0.34375,0 -0.5,-0.15625 -0.1875,-0.1875 -0.1875,-0.5 v -0.625 q 0,-0.65625 -0.25,-0.9375 -0.25,-0.28125 -0.96875,-0.28125 h -3 q -0.8125,-0.0312 -1.15625,0.375 -0.3125,0.40625 -0.3125,1.71875 z"
       id="path1045" />
    <path
       d="m 87.192513,260.84503 v 11.15625 q -0.03125,1.28125 0.3125,1.6875 0.3125,0.40625 1.15625,0.375 h 2.5625 q 0.71875,0.0312 1,-0.21875 0.28125,-0.21875 0.28125,-0.78125 v -1.1875 q 0,-0.3125 0.1875,-0.5 0.1875,-0.15625 0.5,-0.15625 h 3.78125 q 0.875,0 0.875,0.875 v 1.59375 q -0.03125,1.8125 -0.90625,2.8125 -0.90625,1.03125 -2.28125,1.4375 -1.375,0.4375 -2.875,0.40625 h -3.84375 q -2.375,0.0312 -3.84375,-0.28125 -1.46875,-0.3125 -2.25,-1.03125 -0.78125,-0.75 -1.0625,-2.03125 -0.28125,-1.3125 -0.25,-3.3125 v -10.59375 q -0.03125,-2 0.25,-3.28125 0.28125,-1.3125 1.0625,-2.03125 0.78125,-0.75 2.25,-1.0625 1.46875,-0.28125 3.84375,-0.28125 h 2.96875 q 2.03125,0 3.5625,0.375 1.53125,0.375 2.40625,1.40625 0.875,1 0.90625,2.9375 v 1.3125 q 0,0.84375 -0.875,0.84375 h -3.78125 q -0.34375,0 -0.5,-0.15625 -0.1875,-0.15625 -0.1875,-0.46875 v -0.71875 q 0,-0.65625 -0.25,-0.9375 -0.25,-0.28125 -0.96875,-0.28125 h -2.5625 q -0.84375,-0.0312 -1.15625,0.375 -0.34375,0.40625 -0.3125,1.71875 z"
       id="path1047" />
    <path
       d="m 112.44251,264.62628 h -3.71875 q -0.46875,0 -0.71875,0.1875 -0.25,0.15625 -0.25,0.5 v 12 q 0,0.53125 -0.25,0.78125 -0.25,0.25 -0.8125,0.25 h -3.4375 q -0.5625,0 -0.84375,-0.25 -0.28125,-0.25 -0.28125,-0.78125 v -15.71875 q 0,-0.5 0.25,-0.75 0.25,-0.25 0.75,-0.25 h 9.3125 q 0.375,0 0.59375,0.21875 0.1875,0.1875 0.1875,0.59375 v 2.40625 q 0,0.4375 -0.1875,0.625 -0.21875,0.1875 -0.59375,0.1875 z"
       id="path1049" />
  </g>
  <g
     aria-label="0/6"
     id="text853-2"
     style="font-style:normal;font-variant:normal;font-weight:normal;font-stretch:normal;font-size:32px;line-height:1.25;font-family:'Wheaton RS';-inkscape-font-specification:'Wheaton RS, Normal';font-variant-ligatures:normal;font-variant-caps:normal;font-variant-numeric:normal;font-variant-east-asian:normal;fill:#000000;fill-opacity:1;stroke:none;stroke-width:2;stroke-miterlimit:4;stroke-dasharray:none;stroke-opacity:1">
    <path
       d="m 34.057804,307.0433 q 0,0.78125 0.34375,1.1875 0.375,0.375 1.0625,0.375 h 3.09375 q 0.6875,0 1.03125,-0.375 0.34375,-0.40625 0.34375,-1.1875 v -12.1875 q 0,-0.78125 -0.34375,-1.15625 -0.34375,-0.40625 -1.03125,-0.40625 h -3.09375 q -0.6875,0 -1.0625,0.40625 -0.34375,0.375 -0.34375,1.15625 z m 6.78125,5.84375 h -7.71875 q -1.6875,0.0312 -2.71875,-0.4375 -1.03125,-0.5 -1.5,-1.65625 -0.4375,-1.15625 -0.4375,-3.1875 v -13.3125 q 0,-2.03125 0.4375,-3.1875 0.46875,-1.15625 1.5,-1.65625 1.03125,-0.46875 2.71875,-0.46875 h 7.71875 q 1.71875,0 2.75,0.46875 1.03125,0.5 1.5,1.65625 0.4375,1.15625 0.4375,3.1875 v 13.3125 q 0,2.03125 -0.4375,3.1875 -0.46875,1.15625 -1.5,1.65625 -1.03125,0.46875 -2.75,0.4375 z"
       id="path1052" />
    <path
       d="m 50.057804,316.01205 h -1.40625 q -0.46875,0 -0.75,-0.21875 -0.25,-0.1875 -0.25,-0.625 0,-0.0937 0,-0.1875 0.03125,-0.0937 0.03125,-0.15625 l 7.5625,-26.03125 q 0.09375,-0.375 0.40625,-0.5625 0.3125,-0.1875 0.78125,-0.1875 h 1.40625 q 0.4375,0 0.71875,0.21875 0.25,0.21875 0.28125,0.5625 0,0.125 -0.03125,0.21875 -0.03125,0.125 -0.03125,0.21875 l -7.5625,26 q -0.125,0.375 -0.46875,0.5625 -0.34375,0.1875 -0.6875,0.1875 z"
       id="path1054" />
    <path
       d="m 72.964054,306.8558 v -1.625 q 0,-0.84375 -0.1875,-1.3125 -0.21875,-0.5 -0.8125,-0.6875 -0.59375,-0.1875 -1.78125,-0.15625 h -3.125 q -0.5,-0.0312 -0.6875,0.25 -0.21875,0.25 -0.1875,0.84375 v 2.53125 q 0,0.84375 0.1875,1.28125 0.15625,0.4375 0.625,0.59375 0.4375,0.15625 1.1875,0.125 h 2.5 q 1.25,0.0312 1.78125,-0.40625 0.5,-0.4375 0.5,-1.4375 z m -0.09375,6.03125 h -5.03125 q -2.84375,0.0312 -4.34375,-0.46875 -1.53125,-0.5 -2.09375,-1.75 -0.5625,-1.21875 -0.53125,-3.46875 v -13.0625 q -0.03125,-2.5 1.28125,-3.8125 1.3125,-1.3125 4.28125,-1.34375 h 4.9375 q 1.75,0 2.78125,0.4375 1.03125,0.40625 1.46875,1.21875 0.40625,0.84375 0.40625,2.0625 v 1.6875 q 0,0.40625 -0.21875,0.625 -0.21875,0.21875 -0.65625,0.21875 h -3.34375 q -0.40625,0 -0.53125,-0.15625 -0.15625,-0.15625 -0.15625,-0.46875 v -0.5 q 0,-0.46875 -0.28125,-0.65625 -0.28125,-0.15625 -0.84375,-0.15625 h -2.40625 q -0.78125,0 -1.09375,0.34375 -0.34375,0.34375 -0.3125,1.125 v 3.75 q -0.03125,0.375 0.15625,0.5625 0.21875,0.1875 0.6875,0.1875 h 4.96875 q 2.5,0 3.875,0.5 1.375,0.53125 1.90625,1.71875 0.5,1.1875 0.5,3.15625 v 2.4375 q 0,2.09375 -0.46875,3.375 -0.46875,1.28125 -1.65625,1.875 -1.1875,0.59375 -3.28125,0.5625 z"
       id="path1056" />
  </g>
  <circle
     style="fill:#ffffff;stroke:#000000;stroke-width:2;stroke-linecap:round;stroke-linejoin:round;fill-opacity:1;stroke-opacity:1;stroke-miterlimit:4;stroke-dasharray:none"
     id="path873"
     cx="253.13263"
     cy="54.660511"
     r="9.4798679" />
  <circle
     style="fill:#ffffff;fill-opacity:1;stroke:#000000;stroke-width:2;stroke-linecap:round;stroke-linejoin:round;stroke-opacity:1;stroke-miterlimit:4;stroke-dasharray:none"
     id="path873-6"
     cx="252.93092"
     cy="99.437759"
     r="9.4798679" />
  <circle
     style="fill:#ffffff;fill-opacity:1;stroke:#000000;stroke-width:2;stroke-linecap:round;stroke-linejoin:round;stroke-opacity:1;stroke-miterlimit:4;stroke-dasharray:none"
     id="path873-6-0"
     cx="181.12599"
     cy="79.066132"
     r="9.4798679" />
  <circle
     style="fill:#ffffff;fill-opacity:1;stroke:#000000;stroke-width:2;stroke-linecap:round;stroke-linejoin:round;stroke-opacity:1;stroke-miterlimit:4;stroke-dasharray:none"
     id="path873-6-7"
     cx="143.00481"
     cy="61.518288"
     r="9.4798679" />
  <circle
     style="fill:#ffffff;fill-opacity:1;stroke:#000000;stroke-width:2;stroke-linecap:round;stroke-linejoin:round;stroke-opacity:1;stroke-miterlimit:4;stroke-dasharray:none"
     id="path873-6-2"
     cx="91.369789"
     cy="78.864426"
     r="9.4798679" />
  <circle
     style="fill:#ffffff;fill-opacity:1;stroke:#000000;stroke-width:2;stroke-linecap:round;stroke-linejoin:round;stroke-opacity:1;stroke-miterlimit:4;stroke-dasharray:none"
     id="path873-6-77"
     cx="192.82454"
     cy="132.71814"
     r="9.4798679" />
  <circle
     style="fill:#ffffff;fill-opacity:1;stroke:#000000;stroke-width:2;stroke-linecap:round;stroke-linejoin:round;stroke-opacity:1;stroke-miterlimit:4;stroke-dasharray:none"
     id="path873-6-4"
     cx="136.55043"
     cy="98.429268"
     r="9.4798679" />
  <circle
     style="fill:#ffffff;fill-opacity:1;stroke:#000000;stroke-width:2;stroke-linecap:round;stroke-linejoin:round;stroke-opacity:1;stroke-miterlimit:4;stroke-dasharray:none"
     id="path873-6-9"
     cx="250.51054"
     cy="156.92206"
     r="9.4798679" />
  <circle
     style="fill:#ffffff;fill-opacity:1;stroke:#000000;stroke-width:2;stroke-linecap:round;stroke-linejoin:round;stroke-opacity:1;stroke-miterlimit:4;stroke-dasharray:none"
     id="path873-6-97"
     cx="288.63171"
     cy="133.52493"
     r="9.4798679" />
  <circle
     style="fill:#ffffff;fill-opacity:1;stroke:#000000;stroke-width:2;stroke-linecap:round;stroke-linejoin:round;stroke-opacity:1;stroke-miterlimit:4;stroke-dasharray:none"
     id="path873-6-8"
     cx="295.89288"
     cy="190.40414"
     r="9.4798679" />
  <circle
     style="fill:#ffffff;fill-opacity:1;stroke:#000000;stroke-width:2;stroke-linecap:round;stroke-linejoin:round;stroke-opacity:1;stroke-miterlimit:4;stroke-dasharray:none"
     id="path873-6-5"
     cx="159.74585"
     cy="186.97527"
     r="9.4798679" />
  <path
     style="fill:none;stroke:#000000;stroke-width:2;stroke-linecap:butt;stroke-linejoin:miter;stroke-opacity:1;stroke-miterlimit:4;stroke-dasharray:none"
     d="m 49.618031,141.18951 66.157379,29.85151"
     id="path1025" />
  <circle
     style="fill:#ffffff;fill-opacity:1;stroke:#000000;stroke-width:2;stroke-linecap:round;stroke-linejoin:round;stroke-opacity:1;stroke-miterlimit:4;stroke-dasharray:none"
     id="path873-6-47"
     cx="115.77541"
     cy="171.04102"
     r="9.4798679" />
  <circle
     style="fill:#ffffff;fill-opacity:1;stroke:#000000;stroke-width:2;stroke-linecap:round;stroke-linejoin:round;stroke-opacity:1;stroke-miterlimit:4;stroke-dasharray:none"
     id="path873-6-49"
     cx="66.157372"
     cy="175.47839"
     r="9.4798679" />
  <circle
     style="fill:#ffffff;fill-opacity:1;stroke:#000000;stroke-width:2;stroke-linecap:round;stroke-linejoin:round;stroke-opacity:1;stroke-miterlimit:4;stroke-dasharray:none"
     id="path873-6-41"
     cx="49.618031"
     cy="141.18951"
     r="9.4798679" />
  <circle
     style="fill:#ffffff;fill-opacity:1;stroke:#000000;stroke-width:2;stroke-linecap:round;stroke-linejoin:round;stroke-opacity:1;stroke-miterlimit:4;stroke-dasharray:none"
     id="path873-6-46"
     cx="127.27226"
     cy="226.30663"
     r="9.4798679" />
  <circle
     style="fill:#ffffff;fill-opacity:1;stroke:#000000;stroke-width:2;stroke-linecap:round;stroke-linejoin:round;stroke-opacity:1;stroke-miterlimit:4;stroke-dasharray:none"
     id="path873-6-75"
     cx="211.78427"
     cy="209.36388"
     r="9.4798679" />
  <circle
     style="fill:#ffffff;fill-opacity:1;stroke:#000000;stroke-width:2;stroke-linecap:round;stroke-linejoin:round;stroke-opacity:1;stroke-miterlimit:4;stroke-dasharray:none"
     id="path873-6-86"
     cx="175.2767"
     cy="264.02438"
     r="9.4798679" />
  <circle
     style="fill:#ffffff;fill-opacity:1;stroke:#000000;stroke-width:2;stroke-linecap:round;stroke-linejoin:round;stroke-opacity:1;stroke-miterlimit:4;stroke-dasharray:none"
     id="path873-6-80"
     cx="132.91985"
     cy="286.81641"
     r="9.4798679" />
  <circle
     style="fill:#ffffff;fill-opacity:1;stroke:#000000;stroke-width:2;stroke-linecap:round;stroke-linejoin:round;stroke-opacity:1;stroke-miterlimit:4;stroke-dasharray:none"
     id="path873-6-3"
     cx="247.68675"
     cy="300.53198"
     r="9.4798679" />
  <circle
     style="fill:#ffffff;fill-opacity:1;stroke:#000000;stroke-width:2;stroke-linecap:round;stroke-linejoin:round;stroke-opacity:1;stroke-miterlimit:4;stroke-dasharray:none"
     id="path873-6-6"
     cx="261.40231"
     cy="237.60179"
     r="9.4798679" />
  <circle
     style="fill:#ffffff;fill-opacity:1;stroke:#000000;stroke-width:2;stroke-linecap:round;stroke-linejoin:round;stroke-opacity:1;stroke-miterlimit:4;stroke-dasharray:none"
     id="path873-6-30"
     cx="302.14557"
     cy="299.32178"
     r="9.4798679" />
</svg>
