<?xml version="1.0" encoding="UTF-8" standalone="no"?>
<svg
   xmlns:dc="http://purl.org/dc/elements/1.1/"
   xmlns:cc="http://creativecommons.org/ns#"
   xmlns:rdf="http://www.w3.org/1999/02/22-rdf-syntax-ns#"
   xmlns:svg="http://www.w3.org/2000/svg"
   xmlns="http://www.w3.org/2000/svg"
   width="32"
   height="32"
   viewBox="0 0 8.4666665 8.4666669"
   version="1.1"
   id="svg8">
  <defs
     id="defs2" />
  <metadata
     id="metadata5">
    <rdf:RDF>
      <cc:Work
         rdf:about="">
        <dc:format>image/svg+xml</dc:format>
        <dc:type
           rdf:resource="http://purl.org/dc/dcmitype/StillImage" />
        <dc:title></dc:title>
      </cc:Work>
    </rdf:RDF>
  </metadata>
  <g
     style="stroke-width:0.5291667;stroke-miterlimit:4;stroke-dasharray:none"
     id="layer1"
     transform="matrix(0.97621372,0,0,0.97621372,0.10069523,-281.56387)">
    <g
       style="stroke-width:0.43363911;stroke-miterlimit:4;stroke-dasharray:none"
       id="g1485"
       transform="matrix(1.2202928,0,0,1.2202928,-0.93257252,-64.546417)">
      <rect
         y="290.23303"
         x="0.89651197"
         height="5.5397062"
         width="6.6736422"
         id="rect1377"
         style="fill:none;fill-opacity:1;stroke:#000000;stroke-width:0.43363911;stroke-miterlimit:4;stroke-dasharray:none;stroke-opacity:1" />
      <g
         style="stroke-width:0.43363911;stroke-miterlimit:4;stroke-dasharray:none"
         transform="translate(-0.05433415,0.22585986)"
         id="g1399">
        <path
           style="fill:none;stroke:#000000;stroke-width:0.43363911;stroke-linecap:round;stroke-linejoin:miter;stroke-miterlimit:4;stroke-dasharray:none;stroke-opacity:1"
           d="m 4.2876672,291.81463 c 0,0 -0.1771761,2.07769 -0.9921875,2.9175"
           id="path1379" />
        <path
           style="fill:none;stroke:#000000;stroke-width:0.43363911;stroke-linecap:round;stroke-linejoin:miter;stroke-miterlimit:4;stroke-dasharray:none;stroke-opacity:1"
           d="m 4.2876672,291.81463 c 0,0 0.1771761,2.07769 0.9921875,2.9175"
           id="path1379-9" />
      </g>
      <path
         d="m 4.4223212,291.4356 -0.1889881,-0.0554 -0.1889881,0.0554 0.055353,-0.18899 -0.055353,-0.18899 0.1889881,0.0554 0.1889881,-0.0554 -0.055353,0.18899 z"
         id="path1403"
         style="fill:none;fill-opacity:1;stroke:#000000;stroke-width:0.43363911;stroke-linecap:round;stroke-miterlimit:4;stroke-dasharray:none;stroke-opacity:1" />
      <path
         transform="rotate(30,5.3591285,291.90631)"
         d="m 5.5481165,292.0953 -0.188988,-0.0554 -0.1889881,0.0554 0.055353,-0.18899 -0.055353,-0.18899 0.1889881,0.0554 0.188988,-0.0554 -0.055353,0.18899 z"
         id="path1403-7"
         style="fill:none;fill-opacity:1;stroke:#000000;stroke-width:0.43363911;stroke-linecap:round;stroke-miterlimit:4;stroke-dasharray:none;stroke-opacity:1" />
      <path
         transform="rotate(60,4.8446642,293.20838)"
         d="m 5.5481165,292.0953 -0.188988,-0.0554 -0.1889881,0.0554 0.055353,-0.18899 -0.055353,-0.18899 0.1889881,0.0554 0.188988,-0.0554 -0.055353,0.18899 z"
         id="path1403-7-3"
         style="fill:none;fill-opacity:1;stroke:#000000;stroke-width:0.43363911;stroke-linecap:round;stroke-miterlimit:4;stroke-dasharray:none;stroke-opacity:1" />
      <path
         transform="rotate(90,4.2909317,293.49897)"
         d="m 5.5481165,292.0953 -0.188988,-0.0554 -0.1889881,0.0554 0.055353,-0.18899 -0.055353,-0.18899 0.1889881,0.0554 0.188988,-0.0554 -0.055353,0.18899 z"
         id="path1403-7-3-6"
         style="fill:none;fill-opacity:1;stroke:#000000;stroke-width:0.43363911;stroke-linecap:round;stroke-miterlimit:4;stroke-dasharray:none;stroke-opacity:1" />
      <path
         transform="matrix(-0.8660254,0.5,0.5,0.8660254,-138.20447,36.428436)"
         d="m 5.5481165,292.0953 -0.188988,-0.0554 -0.1889881,0.0554 0.055353,-0.18899 -0.055353,-0.18899 0.1889881,0.0554 0.188988,-0.0554 -0.055353,0.18899 z"
         id="path1403-7-7"
         style="fill:none;fill-opacity:1;stroke:#000000;stroke-width:0.43363911;stroke-linecap:round;stroke-miterlimit:4;stroke-dasharray:none;stroke-opacity:1" />
      <path
         transform="matrix(-0.5,0.8660254,0.8660254,0.5,-247.88156,142.40857)"
         d="m 5.5481165,292.0953 -0.188988,-0.0554 -0.1889881,0.0554 0.055353,-0.18899 -0.055353,-0.18899 0.1889881,0.0554 0.188988,-0.0554 -0.055353,0.18899 z"
         id="path1403-7-3-1"
         style="fill:none;fill-opacity:1;stroke:#000000;stroke-width:0.43363911;stroke-linecap:round;stroke-miterlimit:4;stroke-dasharray:none;stroke-opacity:1" />
      <path
         transform="matrix(0,1,1,0,-289.32322,289.20802)"
         d="m 5.5481165,292.0953 -0.188988,-0.0554 -0.1889881,0.0554 0.055353,-0.18899 -0.055353,-0.18899 0.1889881,0.0554 0.188988,-0.0554 -0.055353,0.18899 z"
         id="path1403-7-3-6-2"
         style="fill:none;fill-opacity:1;stroke:#000000;stroke-width:0.43363911;stroke-linecap:round;stroke-miterlimit:4;stroke-dasharray:none;stroke-opacity:1" />
    </g>
  </g>
</svg>
