<?xml version="1.0" encoding="UTF-8" standalone="no"?>
<svg
   xmlns:dc="http://purl.org/dc/elements/1.1/"
   xmlns:cc="http://creativecommons.org/ns#"
   xmlns:rdf="http://www.w3.org/1999/02/22-rdf-syntax-ns#"
   xmlns:svg="http://www.w3.org/2000/svg"
   xmlns="http://www.w3.org/2000/svg"
   width="32"
   height="32"
   viewBox="0 0 8.4666665 8.4666669"
   version="1.1"
   id="svg8">
  <defs
     id="defs2" />
  <metadata
     id="metadata5">
    <rdf:RDF>
      <cc:Work
         rdf:about="">
        <dc:format>image/svg+xml</dc:format>
        <dc:type
           rdf:resource="http://purl.org/dc/dcmitype/StillImage" />
        <dc:title></dc:title>
      </cc:Work>
    </rdf:RDF>
  </metadata>
  <g
     id="layer1"
     transform="translate(0,-288.53332)">
    <rect
       style="fill:none;fill-opacity:1;stroke:#000000;stroke-width:0.52916667;stroke-linecap:round;stroke-linejoin:round;stroke-miterlimit:4;stroke-dasharray:none;stroke-opacity:1"
       id="rect826"
       width="4.9164672"
       height="4.9164672"
       x="207.55246"
       y="201.56563"
       transform="rotate(45)" />
    <path
       style="fill:none;stroke:#000000;stroke-width:2.00000003;stroke-linecap:butt;stroke-linejoin:round;stroke-opacity:1;stroke-miterlimit:4;stroke-dasharray:none"
       d="M 15.910156 6.3046875 L 10.164062 12.744141 C 10.164062 12.744141 8.5853621 14.765007 11.363281 14.828125 C 12.115407 14.845214 12.925048 14.847552 13.746094 14.855469 L 13.740234 14.878906 C 13.740234 14.878906 14.685947 14.879857 15.763672 14.876953 C 15.932111 14.877604 15.900599 14.876533 16.056641 14.876953 C 17.134366 14.879857 18.080078 14.878906 18.080078 14.878906 L 18.074219 14.855469 C 18.894968 14.847553 19.703236 14.845208 20.455078 14.828125 C 23.232997 14.765007 21.654297 12.744141 21.654297 12.744141 L 15.910156 6.3046875 z "
       transform="matrix(0.26458333,0,0,0.26458333,0,288.53332)"
       id="path828" />
    <path
       style="fill:none;stroke:#000000;stroke-width:0.5291667;stroke-linecap:butt;stroke-linejoin:miter;stroke-miterlimit:4;stroke-dasharray:none;stroke-opacity:1"
       d="m 3.3190232,292.46116 c 0,0 0.8905389,-2.25972 1.736385,4e-4"
       id="path846" />
    <ellipse
       style="fill:#000000;fill-opacity:1;stroke:#000000;stroke-width:0.26499999;stroke-linecap:round;stroke-linejoin:round;stroke-miterlimit:4;stroke-dasharray:none;stroke-opacity:1"
       id="path848"
       cx="4.2333293"
       cy="294.23129"
       rx="0.36616442"
       ry="0.88588172" />
    <path
       style="fill:#000000;stroke:#000000;stroke-width:0.26458332px;stroke-linecap:butt;stroke-linejoin:miter;stroke-opacity:1;fill-opacity:1"
       d="m 3.8671648,294.23132 c 0,0 -0.311826,-0.17243 -0.376791,-0.63899 -0.064964,-0.4666 -0.626023,-0.065 -0.626023,-0.065 0,0 -0.5197172,0.25395 0.3248233,0.502 0.8445406,0.24805 0.4581978,0.41726 0.836174,0.93107"
       id="path850" />
    <path
       style="fill:#000000;fill-opacity:1;stroke:#000000;stroke-width:0.26458332px;stroke-linecap:butt;stroke-linejoin:miter;stroke-opacity:1"
       d="m 4.5994937,294.23132 c 0,0 0.3118259,-0.17243 0.3767909,-0.63899 0.064964,-0.4666 0.626023,-0.065 0.626023,-0.065 0,0 0.5197172,0.25395 -0.3248233,0.502 -0.8445405,0.24805 -0.4581977,0.41726 -0.8361739,0.93107"
       id="path850-2" />
  </g>
</svg>
